<?xml version="1.0" encoding="UTF-8"?>
<svg id="Layer_1" data-name="Layer 1" xmlns="http://www.w3.org/2000/svg" viewBox="0 0 157.55 62.74">
  <defs>
    <style>
      .cls-1 {
        fill: #00979e;
      }

      .cls-2 {
        stroke: #007499;
      }

      .cls-2, .cls-3 {
        fill: none;
        stroke-miterlimit: 10;
        stroke-width: 1.79px;
      }

      .cls-3 {
        stroke: #fff;
      }
    </style>
  </defs>
  <path class="cls-1" d="m157.55.93c-13.12,0-13.12,15.23-26.24,15.23S118.19.93,105.07.93s-13.12,15.23-26.25,15.23S65.69.93,52.57.93s-13.13,15.23-26.26,15.23S13.18.93.04.93v45.72c13.13,0,13.13,15.23,26.27,15.23s13.13-15.23,26.26-15.23,13.13,15.23,26.25,15.23,13.12-15.23,26.25-15.23,13.12,15.23,26.24,15.23,13.12-15.23,26.24-15.23V.93Z"/>
  <path class="cls-3" d="m0,2.62c13.13,0,13.13,15.23,26.27,15.23S39.4,2.62,52.53,2.62s13.13,15.23,26.25,15.23,13.12-15.23,26.25-15.23,13.12,15.23,26.24,15.23,13.12-15.23,26.24-15.23"/>
  <path class="cls-3" d="m0,24.62c13.13,0,13.13,15.23,26.27,15.23s13.13-15.23,26.26-15.23,13.13,15.23,26.25,15.23,13.12-15.23,26.25-15.23,13.12,15.23,26.24,15.23,13.12-15.23,26.24-15.23"/>
  <path class="cls-3" d="m0,46.62c13.13,0,13.13,15.23,26.27,15.23s13.13-15.23,26.26-15.23,13.13,15.23,26.25,15.23,13.12-15.23,26.25-15.23,13.12,15.23,26.24,15.23,13.12-15.23,26.24-15.23"/>
  <path class="cls-2" d="m0,.9c13.13,0,13.13,15.23,26.27,15.23S39.4.9,52.53.9s13.13,15.23,26.25,15.23S91.9.9,105.03.9s13.12,15.23,26.24,15.23S144.39.9,157.51.9"/>
  <path class="cls-2" d="m0,22.9c13.13,0,13.13,15.23,26.27,15.23s13.13-15.23,26.26-15.23,13.13,15.23,26.25,15.23,13.12-15.23,26.25-15.23,13.12,15.23,26.24,15.23,13.12-15.23,26.24-15.23"/>
  <path class="cls-2" d="m0,44.9c13.13,0,13.13,15.23,26.27,15.23s13.13-15.23,26.26-15.23,13.13,15.23,26.25,15.23,13.12-15.23,26.25-15.23,13.12,15.23,26.24,15.23,13.12-15.23,26.24-15.23"/>
</svg>